<?xml version="1.0" standalone="no"?>
<!DOCTYPE svg PUBLIC "-//W3C//DTD SVG 20010904//EN"
 "http://www.w3.org/TR/2001/REC-SVG-20010904/DTD/svg10.dtd">
<svg version="1.0" xmlns="http://www.w3.org/2000/svg"
 width="300.000000pt" height="300.000000pt" viewBox="0 0 300.000000 300.000000"
 preserveAspectRatio="xMidYMid meet">
<metadata>
Created by potrace 1.11, written by Peter Selinger 2001-2013
</metadata>
<g transform="translate(0.000000,300.000000) scale(0.100000,-0.100000)"
fill="#000000" stroke="none">
<path d="M1370 2942 c0 -7 39 -35 50 -37 5 -1 31 -13 213 -100 32 -15 56 -29
55 -30 -2 -2 -47 -25 -100 -52 l-97 -49 -78 34 c-43 18 -94 39 -113 46 -19 8
-56 23 -82 36 -26 12 -55 20 -65 18 -10 -2 20 -19 72 -41 50 -21 99 -42 110
-48 11 -5 47 -20 79 -33 56 -22 58 -24 37 -35 -12 -7 -42 -18 -65 -25 -39 -12
-49 -11 -92 6 -81 33 -87 35 -149 59 -33 13 -64 26 -70 30 -18 11 -65 20 -65
11 0 -5 44 -25 98 -46 53 -21 109 -44 125 -52 15 -8 27 -13 27 -9 0 3 14 -1
30 -10 17 -9 30 -19 30 -24 0 -4 -27 -20 -60 -35 l-60 -28 -117 42 c-65 22
-127 45 -138 49 -65 27 -78 31 -94 31 -21 0 -33 -22 -25 -44 3 -8 20 -20 37
-26 18 -7 46 -18 62 -25 17 -7 48 -18 70 -25 22 -7 56 -20 75 -28 l35 -14 -65
-30 -65 -29 -70 21 c-38 12 -79 25 -90 30 -18 7 -178 59 -232 75 -18 5 -22 3
-17 -9 3 -9 14 -16 23 -16 9 0 55 -13 101 -29 47 -16 124 -41 171 -56 67 -20
88 -31 92 -47 5 -17 12 -20 44 -15 28 3 77 -8 191 -45 l153 -50 -5 -41 c-2
-23 -5 -53 -5 -67 -1 -19 -9 -29 -30 -37 -18 -7 -31 -19 -33 -33 -2 -17 -21
-33 -68 -57 -118 -63 -211 -191 -253 -348 -76 -281 0 -699 163 -905 95 -119
161 -151 319 -152 l71 -1 1 -36 c0 -20 1 -58 2 -86 2 -54 6 -52 -65 -38 -68
13 -149 -31 -185 -100 -23 -45 -12 -122 22 -153 l26 -24 -21 -67 c-11 -37 -27
-77 -34 -88 -37 -58 -55 -55 290 -55 l316 0 -5 27 c-3 16 -10 47 -15 70 -11
51 2 84 40 97 20 7 30 5 42 -7 23 -22 57 -105 61 -147 l3 -35 74 -3 c84 -3 84
-3 65 78 -11 47 -66 173 -78 178 -8 3 12 62 21 62 3 0 5 31 5 69 -2 52 -7 76
-23 99 -25 34 -89 63 -124 57 -30 -6 -98 -36 -98 -44 0 -5 -101 -6 -130 -2 -4
1 -6 11 -7 24 0 12 -3 58 -7 103 l-7 81 40 27 c34 24 121 111 121 121 0 2 10
21 23 42 24 42 45 95 52 133 3 14 8 41 11 60 9 45 5 185 -11 435 -9 143 -18
193 -50 291 -62 186 -166 285 -322 308 -18 2 -40 11 -49 20 -8 9 -22 16 -29
16 -18 0 -26 15 -32 57 -3 23 0 39 9 44 11 8 11 11 -1 18 -9 6 -16 28 -17 51
-2 40 -1 41 25 35 14 -4 40 -13 56 -20 64 -28 93 -34 109 -22 10 8 14 20 10
34 -6 21 -15 25 -180 84 -18 6 -23 17 -25 58 -3 34 0 52 8 55 12 5 100 -24
178 -60 22 -9 47 -19 55 -20 13 -3 44 -16 82 -35 24 -12 48 -11 48 1 0 6 -7
10 -15 10 -8 0 -24 5 -35 10 -11 6 -29 15 -40 20 -12 6 -25 8 -30 5 -4 -3 -10
-1 -12 3 -1 5 -48 26 -103 47 -55 21 -104 41 -109 46 -4 4 10 17 32 28 22 11
42 17 46 14 3 -4 6 -1 6 5 0 11 45 -3 144 -47 23 -10 48 -21 56 -24 8 -3 52
-21 98 -41 47 -20 82 -31 80 -23 -3 6 -76 42 -163 78 -88 37 -160 71 -162 75
-2 8 172 94 190 94 5 0 46 -18 90 -39 127 -61 279 -131 284 -131 2 0 1 5 -3
11 -4 6 -59 36 -123 66 -205 96 -236 113 -236 126 0 6 -18 14 -40 18 -32 4
-281 112 -320 139 -18 12 -45 20 -45 12z m-495 -342 c3 -6 -1 -7 -9 -4 -18 7
-21 14 -7 14 6 0 13 -4 16 -10z m90 -30 c13 -6 15 -9 5 -9 -8 0 -22 4 -30 9
-18 12 -2 12 25 0z m80 -30 c13 -6 15 -9 5 -9 -8 0 -22 4 -30 9 -18 12 -2 12
25 0z m55 -20 c8 -5 11 -10 5 -10 -5 0 -17 5 -25 10 -8 5 -10 10 -5 10 6 0 17
-5 25 -10z m246 -18 c1 -25 -3 -26 -42 -12 -26 10 -26 11 -8 25 26 20 49 14
50 -13z m-73 -72 l67 -22 0 -49 c0 -27 -2 -49 -5 -49 -4 0 -207 67 -265 87
-18 7 98 62 120 58 8 -2 45 -13 83 -25z m247 -40 c8 -5 11 -10 5 -10 -5 0 -17
5 -25 10 -8 5 -10 10 -5 10 6 0 17 -5 25 -10z m47 -16 c-3 -3 -12 -4 -19 -1
-8 3 -5 6 6 6 11 1 17 -2 13 -5z m10 -30 c-3 -3 -12 -4 -19 -1 -8 3 -5 6 6 6
11 1 17 -2 13 -5z"/>
</g>
</svg>
